<svg xmlns="http://www.w3.org/2000/svg" viewBox="0 0 256 257" aria-label="Vite logo">
  <path fill="#41D1FF" d="M255.153 37.938L134.897 252.49a16.355 16.355 0 0 1-28.395.012L.627 37.939c-3.228-5.897 1.712-13.233 8.378-12.43l120.417 14.472a9.666 9.666 0 0 0 2.32 0l114.396-14.468c6.662-.804 11.602 6.53 8.379 12.425Z"/>
  <path fill="#BD34FE" d="M185.432.063 96.44 17.197a4.83 4.83 0 0 0-3.878 3.754L87.09 50.428a4.83 4.83 0 0 0 5.979 5.595l24.74-5.307a4.83 4.83 0 0 1 5.725 5.792l-7.35 36.018a4.83 4.83 0 0 0 5.8 5.68l15.286-3.33a4.83 4.83 0 0 1 5.84 5.65l-11.683 56.315c-.73 3.523 3.96 5.444 5.893 2.4l1.292-2.04 72.515-144.654c1.215-2.424-.877-5.218-3.58-4.695Z"/>
</svg>
